# xmcd CD database file
# Copyright (C) 1993-1998 Ti Kan
# 
# Track frame offsets:
#     150
#     21275
#     43657
#     62700
#     75150
#     99775
#     117600
#     131100
#     153100
#     170750
#     194025
#     208825
# 
# Disc length: 3031 seconds
# 
# Revision: 1
# Processed by: cddbd v1.4b41PL1 Copyright (c) Steve Scherf et al.
# Submitted via: DiscPlay 4.0.4
# 
DISCID=a40bd50c
DTITLE=Johnny Thompson Singers - The Most Beautiful Gospel-Songs Vol. 3
DYEAR=1900
DGENRE=
TTITLE0=Worthy Is The Lamb
TTITLE1=Looking For Jesus To Return
TTITLE2=What Are You Waiting For
TTITLE3=Jesus Is Gone Away
TTITLE4=You May Look For Me
TTITLE5=One More Chance
TTITLE6=God Keeps On Proving Himself
TTITLE7=Because Of My Lord
TTITLE8=Don't Take God's Love For Granted
TTITLE9=Surley, Goodness And Mercy
TTITLE10=Couldn't Hear Nobody Pray
TTITLE11=We Have Become Good Friends
EXTD=
EXTT0=
EXTT1=
EXTT2=
EXTT3=
EXTT4=
EXTT5=
EXTT6=
EXTT7=
EXTT8=
EXTT9=
EXTT10=
EXTT11=
PLAYORDER=
